<?xml version="1.0" standalone="no"?>
<!DOCTYPE svg PUBLIC "-//W3C//DTD SVG 20010904//EN"
 "http://www.w3.org/TR/2001/REC-SVG-20010904/DTD/svg10.dtd">
<svg version="1.0" xmlns="http://www.w3.org/2000/svg"
 width="200.000000pt" height="200.000000pt" viewBox="0 0 200.000000 200.000000"
 preserveAspectRatio="xMidYMid meet">

<g transform="translate(0.000000,200.000000) scale(0.100000,-0.100000)"
fill="#000000" stroke="none">
<path d="M0 1555 c0 -417 1 -445 18 -445 16 -1 16 -1 0 -11 -26 -14 -22 -24
10 -25 15 -1 21 1 15 3 -19 7 -16 23 5 24 12 0 10 3 -8 10 -20 8 -22 12 -10
19 8 5 23 7 32 4 10 -3 18 -1 18 3 0 10 63 43 81 43 6 0 7 -5 3 -12 -4 -7 -3
-8 5 -4 6 4 9 12 6 17 -4 5 10 9 29 9 19 0 38 5 41 10 3 5 18 11 33 11 l27 1
-30 8 c-23 6 -25 8 -8 9 12 0 28 8 37 16 19 19 27 19 19 -1 -5 -14 -3 -14 26
1 27 14 30 19 20 31 -7 8 -8 14 -3 12 5 -1 24 3 42 11 22 9 29 17 21 22 -7 4
-24 0 -38 -9 -24 -15 -25 -15 -13 0 12 14 8 16 -36 13 l-49 -3 26 27 c60 61
92 76 44 19 -13 -15 -13 -16 8 -11 17 5 20 3 14 -7 -5 -9 -4 -11 4 -6 6 4 9
12 6 17 -6 9 42 34 59 30 5 -1 6 5 2 14 -3 9 -2 13 4 10 5 -3 20 1 34 10 13 9
46 22 73 28 27 8 47 18 45 25 -1 7 5 12 14 12 8 0 13 4 10 9 -6 10 40 25 53
17 9 -6 79 18 132 44 21 11 44 20 51 20 7 0 34 11 60 25 61 32 97 32 123 -2
11 -15 41 -48 68 -74 26 -26 47 -49 47 -53 0 -3 -15 -6 -34 -6 -39 0 -53 -14
-37 -34 19 -22 41 -108 32 -124 -5 -8 -6 -23 -3 -34 3 -11 -5 -29 -18 -43 -13
-14 -18 -25 -11 -25 7 0 9 -4 6 -10 -3 -5 -4 -10 0 -10 3 0 16 23 28 52 l23
52 22 -38 c12 -20 22 -52 23 -69 0 -22 3 -27 7 -15 6 15 11 13 32 -14 13 -16
26 -40 27 -52 2 -11 13 -40 24 -63 13 -27 20 -58 18 -85 -2 -29 1 -42 9 -40 7
1 13 -2 13 -8 1 -5 3 -14 4 -20 1 -5 3 -19 4 -30 1 -24 14 -26 36 -4 15 15 18
15 41 -6 13 -13 24 -31 24 -40 0 -8 7 -26 16 -38 8 -12 13 -26 10 -31 -3 -5 1
-15 10 -22 9 -7 33 -48 54 -91 31 -61 36 -79 25 -85 -7 -5 -17 -24 -22 -43
-15 -56 -36 -44 -49 26 -6 36 -24 83 -42 113 -23 37 -30 58 -26 79 4 19 1 32
-10 41 -9 8 -16 21 -16 30 0 10 -7 26 -15 37 -14 18 -14 17 -15 -11 0 -17 5
-36 12 -43 9 -9 9 -12 0 -12 -7 0 -17 11 -22 25 -5 14 -19 38 -31 55 l-22 29
-21 -26 c-12 -15 -28 -47 -37 -71 -13 -40 -13 -52 0 -116 8 -39 19 -74 24 -77
5 -4 6 -12 2 -18 -4 -7 0 -23 9 -36 12 -18 13 -23 3 -19 -8 3 -19 -2 -26 -10
-11 -13 -15 -12 -32 5 -10 10 -19 27 -19 37 -1 9 -7 28 -15 42 -8 14 -14 36
-15 50 0 14 -7 35 -15 46 -8 12 -11 25 -7 29 4 5 1 5 -5 1 -7 -4 -13 -2 -13 3
0 6 -6 11 -14 11 -18 0 -28 -71 -11 -85 15 -13 28 -65 16 -65 -22 0 -47 49
-45 86 2 22 -3 48 -11 61 -16 24 -20 47 -6 39 11 -7 34 64 29 94 -2 16 -14 30
-33 39 -16 8 -33 19 -37 25 -5 7 -8 7 -8 -2 0 -7 -4 -10 -10 -7 -5 3 -10 14
-10 24 0 22 -116 144 -130 136 -5 -3 -16 5 -24 18 -14 21 -14 28 4 79 18 52
18 59 4 93 -15 37 -11 61 8 49 6 -4 8 -2 4 4 -3 6 -2 13 3 16 5 4 11 -1 13 -9
3 -14 5 -14 25 0 18 13 20 19 11 29 -10 10 -23 7 -66 -20 -54 -32 -54 -32 -74
-12 -13 13 -25 17 -36 12 -9 -4 -36 -8 -59 -9 l-43 -3 24 19 c13 11 30 19 38
19 8 0 30 8 50 18 20 11 65 25 100 32 44 10 71 22 91 42 16 15 33 28 38 28 16
0 49 39 49 58 0 13 -6 10 -26 -13 -14 -16 -23 -24 -19 -17 3 6 3 12 -2 13 -4
0 -18 2 -30 5 -15 2 -23 -1 -23 -10 0 -7 -9 -21 -20 -31 -11 -10 -17 -22 -13
-28 3 -5 1 -7 -5 -3 -6 3 -13 2 -17 -4 -10 -17 -27 -11 -23 8 2 9 7 16 11 14
4 -1 19 10 33 25 23 25 24 28 8 32 -10 2 -20 -2 -22 -8 -2 -6 -8 -8 -13 -5 -6
3 -19 -2 -31 -13 -11 -10 -21 -16 -22 -14 0 2 -11 1 -24 -3 -12 -4 -19 -12
-16 -18 4 -6 2 -8 -3 -5 -13 8 -117 -36 -107 -46 9 -9 -16 -38 -27 -31 -5 3
-9 -3 -9 -13 0 -10 -10 -24 -22 -32 l-23 -14 20 23 c18 22 19 23 2 17 -11 -4
-30 -10 -43 -13 -13 -3 -24 -12 -24 -20 0 -8 -10 -15 -22 -16 -13 -1 -30 -2
-38 -4 -8 -1 -20 -2 -26 -3 -6 -1 -29 -18 -51 -38 -78 -74 -118 -108 -128
-108 -20 -1 -55 -26 -50 -36 4 -5 3 -9 -2 -8 -19 3 -34 -2 -29 -10 3 -4 -5 -7
-18 -6 -14 2 -38 -11 -67 -36 -24 -22 -56 -46 -70 -54 -19 -10 -26 -22 -27
-44 l-1 -31 45 31 c50 34 53 49 5 25 -35 -19 -41 -20 -41 -5 0 5 4 8 8 5 5 -3
27 6 51 20 48 27 67 31 37 9 -13 -10 -15 -15 -6 -15 7 0 -12 -25 -43 -56 l-57
-57 0 -75 0 -75 54 52 c30 28 58 51 63 52 4 0 16 2 26 4 13 2 10 -5 -13 -28
-16 -17 -30 -35 -30 -40 0 -5 -11 -22 -25 -39 -14 -16 -25 -37 -25 -46 0 -10
-11 -34 -25 -54 l-25 -37 0 -300 0 -301 1000 0 1000 0 0 304 c0 240 -3 312
-15 345 -13 38 -12 45 8 42 4 0 7 16 7 38 0 31 -4 40 -21 44 -14 4 -18 10 -13
18 5 9 2 10 -10 6 -9 -4 -15 -3 -11 2 3 5 1 11 -4 13 -5 1 -3 12 5 22 13 19
14 19 34 1 20 -18 20 -18 20 32 l0 49 -67 23 c-38 13 -76 30 -85 38 -9 8 -22
12 -28 8 -6 -4 -23 3 -36 16 -14 13 -31 24 -37 24 -48 3 -107 36 -107 59 0 7
-20 29 -45 49 -46 39 -56 61 -31 70 8 3 16 -2 19 -14 3 -10 11 -19 17 -19 7 0
10 8 7 20 -7 27 1 25 13 -2 7 -19 9 -20 9 -5 1 11 6 17 14 14 6 -2 11 -10 9
-16 -1 -6 5 -14 13 -17 8 -4 15 -14 15 -23 0 -9 14 -31 30 -50 17 -18 30 -38
30 -43 0 -5 4 -6 10 -3 6 4 4 15 -5 29 -9 13 -14 28 -13 32 2 5 -1 11 -7 13
-15 6 -34 34 -35 51 0 9 5 7 16 -8 21 -31 36 -28 19 5 -8 15 -13 29 -11 30 9
9 39 -13 47 -34 7 -19 15 -24 30 -20 13 4 22 0 26 -11 3 -9 20 -31 37 -48 17
-17 42 -50 55 -72 14 -23 28 -39 32 -37 4 3 12 -2 19 -10 7 -8 19 -15 26 -15
12 0 14 86 14 525 l0 525 -1000 0 -1000 0 0 -445z m635 15 c18 -8 17 -9 -7 -9
-16 -1 -28 4 -28 9 0 12 8 12 35 0z m113 -27 c-10 -2 -28 -2 -40 0 -13 2 -5 4
17 4 22 1 32 -1 23 -4z m-305 -40 c-7 -2 -19 -2 -25 0 -7 3 -2 5 12 5 14 0 19
-2 13 -5z m503 -21 c-8 -16 -23 -35 -33 -43 -16 -12 -17 -12 -7 1 5 8 18 27
27 43 23 35 32 35 13 -1z m-657 4 c-11 -9 -63 -17 -54 -8 6 6 19 12 30 14 20
4 32 1 24 -6z m571 6 c0 -9 -25 -33 -49 -47 -10 -6 -12 -4 -6 6 22 38 55 63
55 41z m-386 -11 c4 -5 -3 -7 -14 -4 -23 6 -26 13 -6 13 8 0 17 -4 20 -9z
m109 2 c-7 -2 -21 -2 -30 0 -10 3 -4 5 12 5 17 0 24 -2 18 -5z m732 -83 c8 0
15 -8 15 -19 0 -14 6 -17 25 -13 14 2 25 0 25 -6 0 -6 11 -23 25 -38 14 -15
23 -33 21 -41 -3 -7 1 -19 9 -27 8 -8 15 -21 15 -29 0 -43 123 -247 149 -247
5 0 22 -17 38 -37 15 -21 37 -39 48 -41 11 -2 34 -12 50 -23 17 -10 42 -24 58
-30 15 -6 27 -15 27 -20 0 -6 9 -5 20 1 22 12 44 5 34 -12 -3 -5 2 -27 12 -49
13 -30 15 -42 6 -51 -17 -17 -15 -39 7 -62 17 -19 46 -106 35 -106 -3 0 -17 8
-32 17 l-27 17 24 -27 c13 -14 25 -37 26 -51 3 -20 -1 -24 -18 -20 -11 2 -31
16 -42 30 -22 28 -45 26 -45 -2 0 -11 -6 -13 -20 -9 -16 5 -20 2 -20 -16 0
-22 -1 -22 -28 7 -16 16 -32 41 -36 57 -3 15 -11 27 -16 27 -13 0 -13 -17 0
-25 6 -4 5 -13 -3 -25 -14 -24 -24 -25 -43 -5 -12 12 -13 22 -4 56 8 30 8 44
-1 55 -6 8 -9 27 -6 43 4 21 1 34 -13 46 -24 22 -25 35 -4 61 15 19 15 19 11
-3 -3 -14 3 -29 19 -44 16 -15 22 -29 18 -41 -3 -11 1 -20 10 -24 10 -4 16
-19 17 -43 0 -32 1 -33 9 -13 12 28 1 144 -12 136 -5 -3 -7 -13 -4 -23 4 -9
-2 -5 -13 9 -11 14 -17 27 -15 30 3 2 10 -2 15 -10 8 -12 9 -9 5 10 -3 14 -6
39 -6 56 0 26 -6 34 -31 44 -22 9 -37 26 -50 57 -10 23 -22 43 -26 43 -13 1
-103 86 -103 97 0 6 -7 13 -15 17 -8 3 -15 17 -15 30 0 14 -6 29 -13 33 -6 4
-28 29 -47 55 -19 26 -41 48 -47 48 -7 0 -13 10 -14 23 0 12 -3 16 -6 9 -8
-20 -23 -3 -23 27 0 16 -7 34 -15 41 -8 7 -15 23 -15 35 0 13 -8 26 -17 31
-15 6 -12 8 12 13 23 5 32 3 37 -11 4 -10 14 -18 23 -18z m-1080 20 c4 -6 -8
-10 -29 -10 -24 0 -36 -5 -36 -14 0 -7 -7 -19 -15 -26 -17 -15 -18 -10 -6 24
12 29 73 48 86 26z m45 -30 c-6 -11 -13 -20 -16 -20 -2 0 0 9 6 20 6 11 13 20
16 20 2 0 0 -9 -6 -20z m-160 -45 c-7 -9 -15 -13 -17 -11 -7 7 7 26 19 26 6 0
6 -6 -2 -15z m220 -50 c0 -8 -4 -15 -10 -15 -5 0 -10 7 -10 15 0 8 5 15 10 15
6 0 10 -7 10 -15z m327 -3 c0 -10 -9 -12 -31 -8 -25 5 -28 4 -13 -5 14 -8 17
-18 12 -36 -5 -20 -3 -24 9 -20 9 4 18 2 21 -3 4 -6 3 -11 -2 -11 -4 -1 -21
-3 -37 -5 -34 -4 -51 -19 -61 -54 -7 -23 -6 -24 9 -11 16 13 17 12 10 -15 -16
-67 -67 -137 -191 -261 -73 -71 -86 -90 -58 -79 20 7 19 -2 -7 -51 -22 -42
-23 -42 -3 -57 18 -13 20 -13 24 2 5 24 32 62 43 62 6 0 5 -6 -2 -14 -6 -8
-14 -30 -16 -48 -3 -18 -7 -43 -10 -56 -3 -14 1 -25 11 -28 8 -3 12 -10 9 -15
-3 -5 0 -9 5 -9 6 0 11 -5 11 -11 0 -6 -6 -9 -14 -6 -7 3 -19 0 -25 -6 -14
-14 -15 -40 -1 -32 6 3 10 1 10 -4 0 -21 -29 -11 -32 12 -2 14 -9 21 -21 21
-9 -1 -17 2 -17 6 0 15 26 70 31 66 3 -3 5 3 6 12 1 12 -6 18 -22 20 -28 2
-58 -39 -60 -84 -3 -47 -15 -61 -30 -34 -13 24 -7 43 56 164 35 67 33 81 -4
32 -15 -19 -33 -40 -40 -48 -24 -24 -87 -166 -88 -200 -2 -32 -2 -32 -9 7 -6
39 -6 39 -14 13 -5 -16 -12 -28 -16 -28 -10 0 15 74 36 105 10 16 12 24 3 27
-6 2 4 19 24 38 19 19 43 49 53 65 l18 30 -22 -19 c-27 -24 -27 -21 -1 34 12
24 24 38 28 32 8 -13 160 158 178 201 7 16 10 34 6 40 -3 6 -1 7 5 3 7 -4 12
-3 12 2 0 5 16 29 35 53 19 24 35 49 35 54 0 6 14 27 30 47 30 36 30 38 14 62
-13 20 -20 24 -34 16 -10 -6 -25 -10 -32 -10 -7 1 4 10 25 21 20 11 37 24 37
29 0 6 23 9 53 8 37 -2 54 -7 54 -16z m-442 -15 c-8 -13 -12 -27 -8 -30 3 -4
1 -7 -5 -7 -17 0 -25 20 -13 34 6 7 8 16 4 19 -3 4 4 7 16 7 20 0 21 -1 6 -23z
m265 3 c0 -5 -5 -10 -11 -10 -5 0 -7 5 -4 10 3 6 8 10 11 10 2 0 4 -4 4 -10z
m-355 -20 c-3 -5 -18 -10 -33 -10 -21 0 -24 2 -12 10 20 13 53 13 45 0z m1369
-26 c3 -8 2 -12 -4 -9 -6 3 -10 10 -10 16 0 14 7 11 14 -7z m-975 -13 c0 -11
-2 -12 -6 -3 -4 10 -9 9 -24 -4 -10 -9 -19 -22 -19 -28 0 -7 -9 -12 -20 -13
-24 -2 -26 10 -5 27 8 7 15 18 15 24 0 6 14 11 30 12 22 1 30 -3 29 -15z
m-182 -48 c-9 -9 -20 -14 -24 -10 -3 4 2 14 13 21 25 19 33 10 11 -11z m-35
-31 c-7 -2 -10 -7 -7 -12 3 -4 -2 -13 -10 -20 -13 -11 -13 -8 -4 19 7 18 15
28 22 24 8 -5 7 -8 -1 -11z m65 -34 c-3 -13 -9 -40 -12 -61 -10 -53 -27 -58
-20 -5 10 72 15 88 26 88 7 0 9 -10 6 -22z m-147 -26 c-14 -9 -42 -34 -62 -55
-21 -23 -42 -36 -48 -32 -14 8 46 75 67 75 7 0 13 7 13 16 0 10 6 14 15 11 8
-4 17 -2 21 4 3 6 9 7 13 4 3 -4 -5 -14 -19 -23z m518 -12 c18 -16 31 -34 28
-39 -3 -5 1 -14 9 -21 12 -10 13 -16 3 -29 -12 -14 -11 -15 5 -2 16 13 21 12
43 -12 28 -30 31 -52 8 -61 -13 -5 -11 -13 15 -48 17 -23 31 -50 31 -61 0 -10
5 -15 10 -12 6 4 17 1 25 -5 15 -12 20 -3 16 23 -1 4 5 15 14 23 13 14 15 12
15 -15 0 -32 -18 -81 -35 -93 -5 -5 -21 4 -34 20 -13 15 -21 23 -19 17 4 -9
31 -68 48 -104 9 -21 30 -25 30 -7 0 31 20 15 21 -16 3 -62 9 -87 36 -148 11
-25 17 -46 12 -48 -4 -2 -5 -11 -2 -20 5 -14 3 -14 -18 3 -13 11 -18 13 -11 5
18 -21 15 -35 -11 -36 -21 -2 -25 5 -35 55 -6 31 -9 73 -5 94 5 34 2 42 -22
63 -34 29 -30 29 -55 4 -27 -27 -25 -32 13 -25 34 7 34 7 28 -69 -1 -6 -6 -5
-13 2 -7 7 -18 12 -25 12 -11 0 -11 -5 -3 -20 6 -11 8 -25 5 -30 -3 -6 -2 -10
4 -10 5 0 11 8 13 17 2 11 9 3 19 -24 16 -39 16 -42 -1 -46 -13 -3 -16 0 -13
17 4 19 3 19 -7 4 -8 -13 -21 -17 -49 -14 -43 4 -72 -19 -75 -60 0 -12 -3 -21
-5 -18 -2 2 -10 -4 -17 -14 -13 -16 -13 -16 -14 1 0 10 7 29 17 43 21 32 23
78 7 129 -7 21 -11 41 -9 44 3 2 5 -2 5 -10 0 -12 2 -12 9 0 6 9 5 21 -2 33
-11 17 -12 17 -19 0 -4 -10 -7 2 -7 31 -1 35 -5 47 -16 47 -9 0 -15 9 -15 24
0 14 -4 28 -10 31 -6 4 -9 -26 -7 -83 1 -50 5 -88 9 -86 7 5 14 -14 23 -67 4
-23 3 -39 -4 -43 -7 -5 -11 9 -12 41 0 40 -2 44 -10 25 -5 -13 -6 -29 -2 -34
3 -6 1 -8 -5 -4 -9 5 -24 51 -26 78 -1 3 -4 9 -7 12 -6 6 1 57 16 117 4 18 -2
33 -26 59 -17 19 -28 29 -25 23 4 -7 2 -13 -3 -13 -6 0 -10 -3 -9 -7 0 -5 -2
-16 -6 -25 -4 -10 -6 -42 -4 -73 1 -30 0 -55 -3 -55 -31 0 -48 112 -23 141 30
33 60 107 58 144 -1 36 0 36 12 14 7 -13 13 -20 14 -16 0 5 5 5 11 1 8 -4 7
-9 -2 -15 -12 -8 -11 -11 1 -19 8 -5 19 -11 23 -13 5 -1 12 -18 16 -37 4 -19
10 -30 13 -25 9 14 -43 125 -58 125 -7 0 -15 22 -19 52 -4 29 -14 63 -23 76
-8 12 -12 25 -8 29 3 3 6 1 6 -5 0 -7 7 -12 15 -12 9 0 15 9 15 23 0 13 5 28
12 35 9 9 16 3 30 -26 14 -30 18 -32 15 -12 -1 14 -6 31 -11 38 -10 17 0 42
16 42 8 0 28 -13 46 -30z m1018 -126 c24 -25 34 -48 12 -26 -7 7 -20 12 -30
12 -11 0 -18 7 -18 20 0 26 8 25 36 -6z m-1680 -9 c-11 -8 -24 -15 -30 -15 -5
0 -1 7 10 15 10 8 24 14 29 14 6 0 1 -6 -9 -14z m227 -25 c-3 -11 -7 -20 -9
-20 -2 0 -4 9 -4 20 0 11 4 20 9 20 5 0 7 -9 4 -20z m584 -35 c-13 -14 -37 -2
-37 17 0 6 7 5 15 -2 13 -11 14 -10 8 6 -6 17 -5 17 10 6 13 -11 14 -17 4 -27z
m-292 -15 c9 -16 11 -30 6 -30 -12 0 -41 46 -34 54 10 9 11 8 28 -24z m-327
-10 c-5 -17 -15 -33 -21 -37 -7 -4 -8 0 -3 13 5 10 11 27 13 37 3 9 9 17 14
17 4 0 3 -14 -3 -30z m202 6 c5 -13 14 -27 20 -31 8 -5 7 -10 -3 -18 -21 -18
-28 -45 -12 -51 8 -3 20 3 27 12 19 25 42 28 28 3 -5 -11 -15 -23 -21 -27 -6
-4 -8 -20 -4 -40 7 -38 -11 -39 -34 -2 -11 18 -11 20 3 15 10 -4 13 -1 9 9 -3
7 -11 14 -19 14 -15 0 -37 67 -27 83 3 6 1 7 -5 3 -15 -9 -15 -3 0 29 14 31
26 32 38 1z m820 -104 c0 -9 7 -11 23 -7 12 4 24 7 27 7 23 0 27 -4 22 -24 -5
-21 -6 -21 -14 -2 -5 12 -7 3 -4 -29 2 -32 11 -56 26 -72 21 -23 23 -65 5 -95
-4 -7 -7 -32 -7 -56 1 -24 -3 -44 -8 -44 -14 0 -30 36 -30 69 0 16 -4 33 -10
36 -5 3 -10 19 -10 35 0 16 -4 32 -10 35 -5 3 -10 28 -10 54 0 34 -6 56 -21
75 -13 17 -18 33 -14 47 7 19 7 20 21 2 7 -10 14 -24 14 -31z m-888 -64 c-7
-7 -12 -8 -12 -2 0 14 12 26 19 19 2 -3 -1 -11 -7 -17z m868 -44 c0 -8 -4 -12
-10 -9 -5 3 -10 13 -10 21 0 8 5 12 10 9 6 -3 10 -13 10 -21z m-741 -26 c5
-18 12 -53 15 -78 5 -44 5 -44 -5 -10 -6 19 -16 44 -21 55 -14 26 -19 65 -8
65 5 0 13 -15 19 -32z m-99 -8 c0 -16 -2 -30 -4 -30 -2 0 -6 14 -8 30 -3 17
-1 30 4 30 4 0 8 -13 8 -30z m608 -45 c-3 -3 -9 2 -12 12 -6 14 -5 15 5 6 7
-7 10 -15 7 -18z m41 -28 c1 -5 -6 -1 -15 7 -8 9 -12 21 -8 28 5 8 10 6 15 -8
4 -10 8 -23 8 -27z m-623 -19 c8 -16 13 -32 10 -36 -3 -3 -6 -1 -6 5 0 5 -9
20 -20 33 -11 13 -20 27 -20 32 0 16 20 -2 36 -34z m649 22 c3 -5 1 -10 -4
-10 -6 0 -11 5 -11 10 0 6 2 10 4 10 3 0 8 -4 11 -10z m-525 -32 c0 -19 -2
-20 -10 -8 -13 19 -13 30 0 30 6 0 10 -10 10 -22z m-310 6 c0 -3 -5 -14 -10
-25 -16 -28 -32 -23 -18 6 10 22 28 35 28 19z m350 -19 c0 -14 -4 -25 -9 -25
-5 0 -8 8 -6 18 2 9 4 20 4 25 2 19 11 4 11 -18z m568 -10 c-3 -3 -9 2 -12 12
-6 14 -5 15 5 6 7 -7 10 -15 7 -18z m629 -7 c0 -7 3 -23 7 -35 10 -31 0 -29
-20 3 -15 22 -15 27 -3 35 8 5 14 9 15 9 0 0 1 -6 1 -12z m-283 -34 c4 -10 1
-14 -6 -12 -15 5 -23 28 -10 28 5 0 13 -7 16 -16z m106 -54 c0 -5 -5 -10 -11
-10 -5 0 -7 5 -4 10 3 6 8 10 11 10 2 0 4 -4 4 -10z m-565 -30 c3 -5 1 -10 -4
-10 -6 0 -11 5 -11 10 0 6 2 10 4 10 3 0 8 -4 11 -10z"/>
<path d="M1316 1335 c-9 -26 -7 -32 5 -12 6 10 9 21 6 23 -2 3 -7 -2 -11 -11z"/>
<path d="M1340 1333 c0 -13 5 -23 10 -23 13 0 13 11 0 30 -8 12 -10 11 -10 -7z"/>
<path d="M495 1030 c-21 -17 -45 -41 -54 -53 -8 -12 7 -2 35 22 27 24 53 48
59 53 24 21 -7 5 -40 -22z"/>
<path d="M747 1034 c-6 -10 20 -51 27 -43 2 2 -1 15 -8 28 -7 13 -16 20 -19
15z"/>
<path d="M741 946 c-10 -11 -10 -20 0 -37 l12 -22 12 29 c17 42 2 61 -24 30z"/>
<path d="M674 918 c-3 -5 -1 -15 5 -21 8 -8 11 -8 11 1 0 7 7 12 15 12 8 0 15
4 15 8 0 12 -39 12 -46 0z"/>
<path d="M770 870 c0 -19 3 -21 12 -12 9 9 9 15 0 24 -9 9 -12 7 -12 -12z"/>
<path d="M755 780 c-3 -5 -1 -18 4 -27 9 -16 10 -14 11 10 0 28 -5 34 -15 17z"/>
<path d="M681 738 c-1 -9 3 -20 9 -23 5 -3 14 -20 19 -38 9 -31 9 -31 10 -5 1
15 -4 30 -10 33 -6 4 -14 17 -19 29 -7 16 -9 17 -9 4z"/>
<path d="M763 677 c2 -34 10 -64 19 -73 28 -28 29 29 1 83 l-24 48 4 -58z"/>
<path d="M672 600 c0 -14 2 -19 5 -12 2 6 2 18 0 25 -3 6 -5 1 -5 -13z"/>
<path d="M1322 710 c0 -14 2 -19 5 -12 2 6 2 18 0 25 -3 6 -5 1 -5 -13z"/>
<path d="M1018 1593 c7 -3 16 -2 19 1 4 3 -2 6 -13 5 -11 0 -14 -3 -6 -6z"/>
<path d="M575 1400 c3 -5 10 -10 16 -10 5 0 9 5 9 10 0 6 -7 10 -16 10 -8 0
-12 -4 -9 -10z"/>
<path d="M946 1381 c-3 -5 -1 -11 5 -13 7 -2 6 -13 -5 -33 -37 -71 -44 -93
-33 -104 7 -7 7 -14 0 -23 -12 -16 -24 -48 -17 -48 2 0 9 11 14 24 5 14 19 26
32 28 18 2 23 10 25 33 1 17 3 47 4 68 2 28 6 36 16 32 21 -8 11 16 -14 32
-13 9 -23 10 -27 4z m4 -126 c0 -16 -6 -25 -15 -25 -18 0 -20 21 -3 38 17 17
18 16 18 -13z"/>
<path d="M450 1370 c0 -5 5 -10 11 -10 5 0 7 5 4 10 -3 6 -8 10 -11 10 -2 0
-4 -4 -4 -10z"/>
<path d="M415 1360 c-3 -5 -1 -10 4 -10 6 0 11 5 11 10 0 6 -2 10 -4 10 -3 0
-8 -4 -11 -10z"/>
<path d="M530 1360 c-8 -5 -17 -7 -20 -5 -3 2 -17 -5 -30 -16 -25 -19 -25 -19
20 -2 51 19 55 21 49 27 -3 3 -11 1 -19 -4z"/>
<path d="M1010 1352 c0 -14 11 -21 26 -15 8 3 11 9 8 14 -7 11 -34 12 -34 1z"/>
<path d="M982 1290 c0 -14 2 -19 5 -12 2 6 2 18 0 25 -3 6 -5 1 -5 -13z"/>
<path d="M1041 1224 c0 -11 3 -14 6 -6 3 7 2 16 -1 19 -3 4 -6 -2 -5 -13z"/>
<path d="M1096 1118 c-3 -18 -7 -57 -9 -86 -4 -49 -3 -52 12 -38 11 11 15 36
16 82 0 71 -11 95 -19 42z"/>
<path d="M7 1063 c-13 -13 -7 -21 13 -16 11 3 17 9 14 14 -6 11 -18 12 -27 2z"/>
<path d="M0 1019 c0 -5 5 -7 10 -4 5 3 10 8 10 11 0 2 -4 4 -10 4 -5 0 -10 -5
-10 -11z"/>
<path d="M1051 1004 c0 -11 3 -14 6 -6 3 7 2 16 -1 19 -3 4 -6 -2 -5 -13z"/>
<path d="M1060 965 c0 -8 4 -15 10 -15 5 0 7 7 4 15 -4 8 -8 15 -10 15 -2 0
-4 -7 -4 -15z"/>
<path d="M1040 940 c0 -5 5 -10 11 -10 5 0 7 5 4 10 -3 6 -8 10 -11 10 -2 0
-4 -4 -4 -10z"/>
<path d="M82 790 c-17 -16 -35 -30 -41 -30 -21 0 -41 -45 -40 -95 0 -44 2 -47
11 -25 24 59 40 88 73 133 40 54 39 60 -3 17z"/>
<path d="M1170 730 c-12 -23 -5 -26 16 -6 16 17 18 26 4 26 -5 0 -14 -9 -20
-20z"/>
</g>
</svg>
